<svg width="54" height="54" viewBox="0 0 54 54" fill="none" xmlns="http://www.w3.org/2000/svg">
<path d="M16.2 0.600006C7.59601 0.600006 0.600006 7.59601 0.600006 16.2V37.8C0.600006 46.404 7.59601 53.4 16.2 53.4H37.8C46.404 53.4 53.4 46.404 53.4 37.8V16.2C53.4 7.59601 46.404 0.600006 37.8 0.600006H16.2ZM41.4 10.2C42.72 10.2 43.8 11.28 43.8 12.6C43.8 13.92 42.72 15 41.4 15C40.08 15 39 13.92 39 12.6C39 11.28 40.08 10.2 41.4 10.2ZM27 13.8C34.284 13.8 40.2 19.716 40.2 27C40.2 34.284 34.284 40.2 27 40.2C19.716 40.2 13.8 34.284 13.8 27C13.8 19.716 19.716 13.8 27 13.8ZM27 16.2C21.048 16.2 16.2 21.048 16.2 27C16.2 32.952 21.048 37.8 27 37.8C32.952 37.8 37.8 32.952 37.8 27C37.8 21.048 32.952 16.2 27 16.2Z" fill="white"/>
</svg>
