<svg width="53" height="44" viewBox="0 0 53 44" fill="none" xmlns="http://www.w3.org/2000/svg">
<path d="M53 5.87401C51.086 6.72401 49.03 7.29601 46.872 7.55401C49.076 6.23401 50.766 4.14401 51.562 1.65201C49.502 2.87401 47.218 3.76201 44.786 4.24201C42.84 2.16801 40.068 0.872009 37 0.872009C31.108 0.872009 26.332 5.65001 26.332 11.54C26.332 12.376 26.428 13.192 26.608 13.97C17.742 13.526 9.88199 9.27801 4.61799 2.82201C3.70199 4.39801 3.17599 6.23001 3.17599 8.18801C3.17599 11.888 5.05799 15.154 7.91999 17.066C6.17199 17.01 4.52599 16.53 3.08799 15.732C3.08799 15.778 3.08799 15.82 3.08799 15.866C3.08799 21.036 6.76399 25.348 11.646 26.326C10.752 26.57 9.80799 26.7 8.83399 26.7C8.14799 26.7 7.47799 26.632 6.82799 26.51C8.18599 30.748 12.126 33.834 16.794 33.92C13.144 36.782 8.54399 38.488 3.54399 38.488C2.68399 38.488 1.83399 38.438 0.997986 38.338C5.71999 41.364 11.326 43.13 17.352 43.13C36.976 43.13 47.704 26.874 47.704 12.776C47.704 12.314 47.694 11.854 47.674 11.396C49.76 9.89001 51.57 8.01201 53 5.87401Z" fill="white"/>
</svg>
